<svg width="48" height="48" viewBox="0 0 48 48" fill="none" xmlns="http://www.w3.org/2000/svg">
<rect width="48" height="48" rx="10" fill="#1E1F34"/>
<path d="M39.8189 30.6811C39.9762 30.8379 40.1011 31.0242 40.1862 31.2293C40.2714 31.4344 40.3152 31.6543 40.3152 31.8764C40.3152 32.0985 40.2714 32.3184 40.1862 32.5235C40.1011 32.7287 39.9762 32.9149 39.8189 33.0717L36.4439 36.4467C36.1269 36.7637 35.6969 36.9418 35.2486 36.9418C34.8003 36.9418 34.3703 36.7637 34.0533 36.4467C33.7363 36.1297 33.5582 35.6997 33.5582 35.2514C33.5582 34.8031 33.7363 34.3731 34.0533 34.0561L34.5469 33.5625H34.253C32.5519 33.5606 30.8758 33.1536 29.3634 32.3753C27.8509 31.5969 26.5455 30.4695 25.5553 29.0864L19.6941 20.8753C19.0167 19.9288 18.1236 19.1572 17.0886 18.6246C16.0537 18.092 14.9068 17.8136 13.7428 17.8125H10.5C10.0524 17.8125 9.62322 17.6347 9.30676 17.3182C8.99029 17.0018 8.8125 16.5725 8.8125 16.125C8.8125 15.6774 8.99029 15.2482 9.30676 14.9318C9.62322 14.6153 10.0524 14.4375 10.5 14.4375H13.7428C15.4438 14.4394 17.1199 14.8463 18.6324 15.6247C20.1449 16.4031 21.4503 17.5305 22.4405 18.9136L28.3059 27.1247C28.9833 28.0712 29.8764 28.8428 30.9114 29.3754C31.9463 29.908 33.0932 30.1864 34.2572 30.1875H34.5469L34.0519 29.6939C33.7349 29.3769 33.5568 28.9469 33.5568 28.4986C33.5568 28.0503 33.7349 27.6203 34.0519 27.3033C34.3689 26.9863 34.7989 26.8082 35.2472 26.8082C35.6955 26.8082 36.1255 26.9863 36.4425 27.3033L39.8189 30.6811ZM26.3723 20.4689C26.7092 20.7635 27.1492 20.9122 27.5956 20.8824C28.0421 20.8526 28.4584 20.6467 28.7531 20.31C29.4395 19.5254 30.2858 18.8967 31.235 18.466C32.1843 18.0352 33.2147 17.8124 34.2572 17.8125H34.5469L34.0519 18.3061C33.7349 18.6231 33.5568 19.0531 33.5568 19.5014C33.5568 19.9497 33.7349 20.3797 34.0519 20.6967C34.3689 21.0137 34.7989 21.1918 35.2472 21.1918C35.6955 21.1918 36.1255 21.0137 36.4425 20.6967L39.8175 17.3217C39.9748 17.1649 40.0996 16.9787 40.1848 16.7735C40.27 16.5684 40.3138 16.3485 40.3138 16.1264C40.3138 15.9043 40.27 15.6844 40.1848 15.4793C40.0996 15.2742 39.9748 15.0879 39.8175 14.9311L36.4425 11.5561C36.1255 11.2391 35.6955 11.061 35.2472 11.061C34.7989 11.061 34.3689 11.2391 34.0519 11.5561C33.7349 11.8731 33.5568 12.3031 33.5568 12.7514C33.5568 13.1997 33.7349 13.6297 34.0519 13.9467L34.5469 14.4375H34.253C32.729 14.4382 31.2229 14.7648 29.8356 15.3955C28.4482 16.0261 27.2118 16.9461 26.2092 18.0937C25.9169 18.4308 25.77 18.8699 25.8005 19.315C25.8311 19.7601 26.0367 20.175 26.3723 20.4689ZM21.6277 27.5311C21.2908 27.2365 20.8508 27.0878 20.4044 27.1176C19.9579 27.1474 19.5416 27.3533 19.2469 27.69C18.5605 28.4746 17.7142 29.1033 16.765 29.534C15.8157 29.9648 14.7853 30.1876 13.7428 30.1875H10.5C10.0524 30.1875 9.62322 30.3653 9.30676 30.6818C8.99029 30.9982 8.8125 31.4274 8.8125 31.875C8.8125 32.3225 8.99029 32.7518 9.30676 33.0682C9.62322 33.3847 10.0524 33.5625 10.5 33.5625H13.7428C15.2667 33.5618 16.7729 33.2351 18.1602 32.6045C19.5475 31.9739 20.784 31.0539 21.7866 29.9062C22.0794 29.5697 22.227 29.131 22.1973 28.6859C22.1675 28.2408 21.9627 27.8256 21.6277 27.5311Z" fill="#FF9090"/>
</svg>
