<svg width="20" height="20" viewBox="0 0 20 20" fill="none" xmlns="http://www.w3.org/2000/svg">
<path d="M17.6414 5.83201C17.5085 5.90147 17.3608 5.93766 17.2109 5.93748C17.039 5.93777 16.8703 5.89077 16.7232 5.80162C16.5762 5.71247 16.4565 5.5846 16.3773 5.43201C15.8075 4.30277 14.9439 3.34795 13.8773 2.66795C13.7694 2.60413 13.6754 2.5193 13.6008 2.4185C13.5262 2.3177 13.4727 2.20296 13.4432 2.08108C13.4138 1.95921 13.4091 1.83266 13.4294 1.70894C13.4498 1.58522 13.4947 1.46683 13.5616 1.36079C13.6285 1.25474 13.716 1.16319 13.8189 1.09156C13.9218 1.01993 14.038 0.969663 14.1607 0.943744C14.2834 0.917824 14.41 0.916775 14.5331 0.940659C14.6562 0.964542 14.7732 1.01287 14.8773 1.08279C16.2236 1.94318 17.3168 3.14632 18.0445 4.56873C18.101 4.67814 18.1354 4.79762 18.1457 4.92032C18.156 5.04303 18.1421 5.16657 18.1046 5.28388C18.0672 5.40119 18.007 5.50998 17.9275 5.60403C17.848 5.69808 17.7508 5.77555 17.6414 5.83201ZM3.62263 5.43201C4.19248 4.30277 5.05609 3.34795 6.12263 2.66795C6.23295 2.60547 6.32945 2.52127 6.4063 2.42044C6.48315 2.3196 6.53874 2.20423 6.56973 2.08129C6.60071 1.95836 6.60644 1.83041 6.58656 1.7052C6.56669 1.57999 6.52162 1.4601 6.45409 1.35281C6.38656 1.24551 6.29797 1.15302 6.19367 1.08094C6.08938 1.00886 5.97154 0.95868 5.8473 0.93344C5.72306 0.908199 5.59498 0.908421 5.47083 0.934092C5.34667 0.959763 5.22902 1.01035 5.12497 1.08279C3.77865 1.94318 2.68552 3.14632 1.95778 4.56873C1.8435 4.78942 1.82152 5.04645 1.89668 5.28333C1.97183 5.52022 2.13796 5.71757 2.35856 5.83201C2.49141 5.90147 2.63912 5.93766 2.78903 5.93748C2.96097 5.93777 3.12968 5.89077 3.2767 5.80162C3.42372 5.71247 3.54339 5.5846 3.62263 5.43201ZM17.1781 13.1156C17.3544 13.3471 17.4626 13.6232 17.4905 13.9128C17.5184 14.2025 17.4648 14.4941 17.3359 14.755C17.2069 15.0158 17.0077 15.2355 16.7606 15.3892C16.5135 15.5429 16.2284 15.6246 15.9375 15.625H13.4226C13.3431 16.4777 12.9482 17.2701 12.3151 17.8469C11.682 18.4237 10.8564 18.7434 9.99997 18.7434C9.14353 18.7434 8.31794 18.4237 7.68486 17.8469C7.05178 17.2701 6.65682 16.4777 6.57731 15.625H4.06247C3.77129 15.625 3.4859 15.5436 3.2385 15.3901C2.99109 15.2366 2.79151 15.0169 2.66227 14.756C2.53302 14.4951 2.47926 14.2032 2.50704 13.9134C2.53483 13.6235 2.64305 13.3472 2.8195 13.1156C3.37966 12.3867 4.04841 11.0359 4.06013 8.74529C4.06075 7.17026 4.68702 5.65998 5.80118 4.5467C6.91534 3.43343 8.42611 2.80834 10.0011 2.80896C11.5762 2.80959 13.0865 3.43586 14.1997 4.55002C15.313 5.66417 15.9381 7.17495 15.9375 8.74998C15.9492 11.0359 16.6179 12.3867 17.1781 13.1156ZM11.5312 15.625H8.46872C8.54044 15.9782 8.73207 16.2958 9.01114 16.5238C9.29021 16.7519 9.63955 16.8765 9.99997 16.8765C10.3604 16.8765 10.7097 16.7519 10.9888 16.5238C11.2679 16.2958 11.4595 15.9782 11.5312 15.625ZM15.339 13.75C14.7015 12.7344 14.0742 11.1273 14.0625 8.75467C14.0628 8.22117 13.958 7.69284 13.7541 7.19984C13.5503 6.70683 13.2513 6.25881 12.8742 5.88136C12.4972 5.5039 12.0496 5.2044 11.5568 4.99996C11.064 4.79552 10.5358 4.69013 10.0023 4.68982C9.46882 4.68952 8.94049 4.79429 8.44748 4.99817C7.95448 5.20204 7.50646 5.50102 7.12901 5.87804C6.75155 6.25507 6.45205 6.70274 6.24761 7.19551C6.04316 7.68827 5.93778 8.21648 5.93747 8.74998C5.92575 11.1265 5.29841 12.7344 4.66091 13.75H15.339Z" fill="#90F7EE"/>
</svg>
