<svg width="20" height="20" viewBox="0 0 20 20" fill="none" xmlns="http://www.w3.org/2000/svg">
<path d="M16.25 2.1875H14.6875V1.875C14.6875 1.62636 14.5887 1.3879 14.4129 1.21209C14.2371 1.03627 13.9986 0.9375 13.75 0.9375C13.5014 0.9375 13.2629 1.03627 13.0871 1.21209C12.9113 1.3879 12.8125 1.62636 12.8125 1.875V2.1875H7.1875V1.875C7.1875 1.62636 7.08873 1.3879 6.91291 1.21209C6.7371 1.03627 6.49864 0.9375 6.25 0.9375C6.00136 0.9375 5.7629 1.03627 5.58709 1.21209C5.41127 1.3879 5.3125 1.62636 5.3125 1.875V2.1875H3.75C3.3356 2.1875 2.93817 2.35212 2.64515 2.64515C2.35212 2.93817 2.1875 3.3356 2.1875 3.75V16.25C2.1875 16.6644 2.35212 17.0618 2.64515 17.3549C2.93817 17.6479 3.3356 17.8125 3.75 17.8125H16.25C16.6644 17.8125 17.0618 17.6479 17.3549 17.3549C17.6479 17.0618 17.8125 16.6644 17.8125 16.25V3.75C17.8125 3.3356 17.6479 2.93817 17.3549 2.64515C17.0618 2.35212 16.6644 2.1875 16.25 2.1875ZM5.3125 4.0625C5.3125 4.31114 5.41127 4.5496 5.58709 4.72541C5.7629 4.90123 6.00136 5 6.25 5C6.49864 5 6.7371 4.90123 6.91291 4.72541C7.08873 4.5496 7.1875 4.31114 7.1875 4.0625H12.8125C12.8125 4.31114 12.9113 4.5496 13.0871 4.72541C13.2629 4.90123 13.5014 5 13.75 5C13.9986 5 14.2371 4.90123 14.4129 4.72541C14.5887 4.5496 14.6875 4.31114 14.6875 4.0625H15.9375V5.9375H4.0625V4.0625H5.3125ZM4.0625 15.9375V7.8125H15.9375V15.9375H4.0625ZM11.25 10C11.25 10.2472 11.1767 10.4889 11.0393 10.6945C10.902 10.9 10.7068 11.0602 10.4784 11.1548C10.2499 11.2495 9.99861 11.2742 9.75614 11.226C9.51366 11.1778 9.29093 11.0587 9.11612 10.8839C8.9413 10.7091 8.82225 10.4863 8.77402 10.2439C8.72579 10.0014 8.75054 9.75005 8.84515 9.52165C8.93976 9.29324 9.09998 9.09801 9.30554 8.96066C9.5111 8.82331 9.75277 8.75 10 8.75C10.3315 8.75 10.6495 8.8817 10.8839 9.11612C11.1183 9.35054 11.25 9.66848 11.25 10ZM15 10C15 10.2472 14.9267 10.4889 14.7893 10.6945C14.652 10.9 14.4568 11.0602 14.2284 11.1548C13.9999 11.2495 13.7486 11.2742 13.5061 11.226C13.2637 11.1778 13.0409 11.0587 12.8661 10.8839C12.6913 10.7091 12.5722 10.4863 12.524 10.2439C12.4758 10.0014 12.5005 9.75005 12.5952 9.52165C12.6898 9.29324 12.85 9.09801 13.0555 8.96066C13.2611 8.82331 13.5028 8.75 13.75 8.75C14.0815 8.75 14.3995 8.8817 14.6339 9.11612C14.8683 9.35054 15 9.66848 15 10ZM7.5 13.75C7.5 13.9972 7.42669 14.2389 7.28934 14.4445C7.15199 14.65 6.95676 14.8102 6.72835 14.9048C6.49995 14.9995 6.24861 15.0242 6.00614 14.976C5.76366 14.9278 5.54093 14.8087 5.36612 14.6339C5.1913 14.4591 5.07225 14.2363 5.02402 13.9939C4.97579 13.7514 5.00054 13.5001 5.09515 13.2716C5.18976 13.0432 5.34998 12.848 5.55554 12.7107C5.7611 12.5733 6.00277 12.5 6.25 12.5C6.58152 12.5 6.89946 12.6317 7.13388 12.8661C7.3683 13.1005 7.5 13.4185 7.5 13.75ZM11.25 13.75C11.25 13.9972 11.1767 14.2389 11.0393 14.4445C10.902 14.65 10.7068 14.8102 10.4784 14.9048C10.2499 14.9995 9.99861 15.0242 9.75614 14.976C9.51366 14.9278 9.29093 14.8087 9.11612 14.6339C8.9413 14.4591 8.82225 14.2363 8.77402 13.9939C8.72579 13.7514 8.75054 13.5001 8.84515 13.2716C8.93976 13.0432 9.09998 12.848 9.30554 12.7107C9.5111 12.5733 9.75277 12.5 10 12.5C10.3315 12.5 10.6495 12.6317 10.8839 12.8661C11.1183 13.1005 11.25 13.4185 11.25 13.75ZM15 13.75C15 13.9972 14.9267 14.2389 14.7893 14.4445C14.652 14.65 14.4568 14.8102 14.2284 14.9048C13.9999 14.9995 13.7486 15.0242 13.5061 14.976C13.2637 14.9278 13.0409 14.8087 12.8661 14.6339C12.6913 14.4591 12.5722 14.2363 12.524 13.9939C12.4758 13.7514 12.5005 13.5001 12.5952 13.2716C12.6898 13.0432 12.85 12.848 13.0555 12.7107C13.2611 12.5733 13.5028 12.5 13.75 12.5C14.0815 12.5 14.3995 12.6317 14.6339 12.8661C14.8683 13.1005 15 13.4185 15 13.75Z" fill="white"/>
</svg>
