<svg width="32" height="32" viewBox="0 0 32 32" fill="none" xmlns="http://www.w3.org/2000/svg">
<path d="M25 4C26.6569 4 28 5.34315 28 7V25C28 26.6569 26.6569 28 25 28H7C5.34315 28 4 26.6569 4 25V7C4 5.34315 5.34315 4 7 4H25ZM18.957 9C18.7929 9.00002 18.6302 9.0319 18.4785 9.09473C18.3269 9.15756 18.1893 9.25013 18.0732 9.36621L10.3662 17.0742C10.2499 17.1898 10.1576 17.3271 10.0947 17.4785C10.0319 17.6302 9.99952 17.7938 10 17.958V20.751C10.0001 21.0824 10.1319 21.4004 10.3662 21.6348C10.6006 21.8691 10.9186 22.001 11.25 22.001H14.043C14.2071 22.0014 14.3699 21.9691 14.5215 21.9062C14.6731 21.8434 14.811 21.7511 14.9268 21.6348L22.6338 13.9268C22.8681 13.6924 23 13.3744 23 13.043C22.9999 12.7116 22.8681 12.3935 22.6338 12.1592L19.8408 9.36621C19.7248 9.25021 19.5871 9.15753 19.4355 9.09473C19.2839 9.03195 19.1211 9 18.957 9ZM19.1875 15.251L13.9375 20.501H11.5V18.0635L16.75 12.8135L19.1875 15.251ZM21.3965 13.042L20.25 14.1885L17.8125 11.751L18.959 10.6045L21.3965 13.042Z" fill="white"/>
</svg>
