<svg width="160" height="55" viewBox="0 0 160 55" fill="none" xmlns="http://www.w3.org/2000/svg">
<path d="M9.64381 42.352C8.47048 42.352 7.35581 42.2347 6.29981 42C5.27315 41.736 4.33448 41.384 3.48381 40.944C2.63315 40.504 1.91448 40.02 1.32781 39.492L1.63581 37.38L3.48381 37.82C4.39315 38.5827 5.36115 39.1987 6.38781 39.668C7.41448 40.108 8.64648 40.328 10.0838 40.328C11.6385 40.328 13.0318 40.0347 14.2638 39.448C15.5251 38.8613 16.5371 38.04 17.2998 36.984C18.0918 35.8987 18.5611 34.6813 18.7078 33.332C18.8838 32.0707 18.7371 31.0587 18.2678 30.296C17.8278 29.504 17.1971 28.888 16.3758 28.448C15.5545 27.9787 14.6305 27.5827 13.6038 27.26C12.5771 26.9373 11.5651 26.5853 10.5678 26.204C9.48248 25.8227 8.47048 25.3387 7.53181 24.752C6.62248 24.136 5.91848 23.3587 5.41981 22.42C4.92115 21.452 4.75981 20.22 4.93581 18.724C5.14115 17.14 5.68381 15.732 6.56381 14.5C7.44381 13.2387 8.61715 12.256 10.0838 11.552C11.5505 10.8187 13.2225 10.452 15.0998 10.452C16.4198 10.452 17.7251 10.6573 19.0158 11.068C20.3358 11.4493 21.5385 12.0507 22.6238 12.872L22.3158 14.632L20.5558 14.28C19.6465 13.6933 18.7225 13.2533 17.7838 12.96C16.8745 12.6373 15.8918 12.476 14.8358 12.476C13.3985 12.476 12.1371 12.74 11.0518 13.268C9.96648 13.7667 9.08648 14.4707 8.41181 15.38C7.73715 16.26 7.34115 17.2867 7.22381 18.46C7.04781 19.7507 7.26781 20.792 7.88381 21.584C8.52915 22.376 9.40915 23.0213 10.5238 23.52C11.6385 24.0187 12.8558 24.488 14.1758 24.928C15.6131 25.4267 16.8745 25.984 17.9598 26.6C19.0745 27.216 19.9105 28.0227 20.4678 29.02C21.0251 30.0173 21.2011 31.3373 20.9958 32.98C20.7905 34.7693 20.1891 36.368 19.1918 37.776C18.1945 39.184 16.8745 40.2987 15.2318 41.12C13.6185 41.9413 11.7558 42.352 9.64381 42.352ZM20.3798 13.84L22.4038 14.5L21.9198 18.592H20.7758C20.6291 18.592 20.4971 18.548 20.3798 18.46C20.2918 18.372 20.2625 18.24 20.2918 18.064L20.3798 13.84ZM3.57181 38.216L1.54781 37.556L2.07581 33.464H3.21981C3.36648 33.464 3.48381 33.508 3.57181 33.596C3.65981 33.684 3.70381 33.816 3.70381 33.992L3.57181 38.216ZM36.4078 19.692C38.5492 19.692 40.3092 20.176 41.6878 21.144C43.0665 22.0827 44.0345 23.4027 44.5918 25.104C45.1785 26.776 45.3252 28.7413 45.0318 31C44.7678 33.2587 44.1372 35.2387 43.1398 36.94C42.1425 38.612 40.8372 39.9173 39.2238 40.856C37.6398 41.7947 35.7772 42.264 33.6358 42.264C31.5532 42.264 29.8078 41.7947 28.3998 40.856C27.0212 39.9173 26.0385 38.5973 25.4518 36.896C24.8652 35.1947 24.7185 33.2293 25.0118 31C25.2758 28.7707 25.9065 26.8053 26.9038 25.104C27.9012 23.4027 29.2065 22.0827 30.8198 21.144C32.4332 20.176 34.2958 19.692 36.4078 19.692ZM33.8558 40.504C36.4665 40.504 38.5052 39.6533 39.9718 37.952C41.4678 36.2213 42.3918 33.9187 42.7438 31.044C42.9785 29.0787 42.9052 27.392 42.5238 25.984C42.1425 24.5467 41.4238 23.432 40.3678 22.64C39.3118 21.848 37.9332 21.452 36.2318 21.452C34.4718 21.452 32.9612 21.848 31.6998 22.64C30.4678 23.432 29.4852 24.5467 28.7518 25.984C28.0185 27.4213 27.5345 29.108 27.2998 31.044C26.9478 33.8893 27.2998 36.1773 28.3558 37.908C29.4412 39.6387 31.2745 40.504 33.8558 40.504ZM50.0588 42L52.7428 20.044H53.9308C54.2242 20.044 54.4148 20.1027 54.5028 20.22C54.6202 20.3373 54.6642 20.528 54.6348 20.792L54.1948 25.5C55.1042 23.6813 56.2042 22.2587 57.4948 21.232C58.7855 20.2053 60.3108 19.692 62.0708 19.692C62.7162 19.692 63.3028 19.7653 63.8308 19.912C64.3882 20.0587 64.8868 20.2493 65.3268 20.484L64.8428 22.068C64.8135 22.1853 64.7402 22.2733 64.6228 22.332C64.5055 22.3907 64.3882 22.42 64.2708 22.42C64.0362 22.3613 63.6255 22.2587 63.0388 22.112C62.4815 21.936 61.9242 21.848 61.3668 21.848C59.7242 21.848 58.3162 22.3613 57.1428 23.388C55.9695 24.4147 54.9282 25.8813 54.0188 27.788L52.3028 42H50.0588ZM53.4908 20.044L53.0068 22.024L49.7068 21.628C49.5308 21.5987 49.3988 21.54 49.3108 21.452C49.2522 21.364 49.2228 21.232 49.2228 21.056L49.3548 20.044H53.4908ZM72.5497 42.352C71.0244 42.352 69.8951 41.9413 69.1617 41.12C68.4284 40.2693 68.1644 38.9787 68.3697 37.248L70.2177 22.376H67.0937C66.9177 22.376 66.7857 22.332 66.6977 22.244C66.6097 22.156 66.5657 22.024 66.5657 21.848L66.6977 21.012L70.4817 20.704L71.9777 12.96C72.0657 12.608 72.2711 12.432 72.5937 12.432H73.6497L72.6377 20.748H79.5017L79.2817 22.376H72.4177L70.6137 37.116C70.4964 38.26 70.6724 39.1107 71.1417 39.668C71.6404 40.2253 72.3297 40.504 73.2097 40.504C73.6204 40.504 74.0751 40.3867 74.5737 40.152C75.0724 39.9173 75.5271 39.6827 75.9377 39.448C76.3777 39.2133 76.6564 39.096 76.7737 39.096C76.9204 39.096 77.0377 39.1693 77.1257 39.316L77.6097 40.284C76.9937 40.9 76.2164 41.3987 75.2777 41.78C74.3391 42.1613 73.4297 42.352 72.5497 42.352ZM88.5578 42.264C86.7098 42.264 85.1991 41.8387 84.0258 40.988C82.8818 40.108 82.0898 38.832 81.6498 37.16C81.2098 35.488 81.1365 33.464 81.4298 31.088C81.6938 28.9467 82.2951 27.0253 83.2338 25.324C84.1725 23.5933 85.4191 22.2293 86.9738 21.232C88.5285 20.2053 90.3178 19.692 92.3418 19.692C93.8671 19.692 95.1431 19.9853 96.1698 20.572C97.1965 21.1293 98.0471 21.9653 98.7218 23.08L99.2058 20.66C99.2938 20.2493 99.5285 20.044 99.9098 20.044H101.186L98.5018 42H97.2258C96.8151 42 96.6245 41.7947 96.6538 41.384L96.8738 37.952C95.7298 39.272 94.4538 40.328 93.0458 41.12C91.6671 41.8827 90.1711 42.264 88.5578 42.264ZM89.4378 40.46C90.8458 40.46 92.1805 40.0933 93.4418 39.36C94.7325 38.6267 95.9058 37.5853 96.9618 36.236L98.3258 24.796C97.6805 23.564 96.8885 22.6987 95.9498 22.2C95.0111 21.7013 93.8965 21.452 92.6058 21.452C90.9045 21.452 89.4231 21.848 88.1618 22.64C86.9298 23.432 85.9325 24.5613 85.1698 26.028C84.4071 27.4653 83.9231 29.152 83.7178 31.088C83.3365 34.1973 83.6151 36.544 84.5538 38.128C85.4925 39.6827 87.1205 40.46 89.4378 40.46ZM97.7538 42L98.2378 40.02L101.538 40.416C101.714 40.4453 101.831 40.504 101.89 40.592C101.978 40.68 102.022 40.812 102.022 40.988L101.89 42H97.7538Z" fill="white"/>
<path d="M155.909 37.2159C156.142 37.4488 156.272 37.7646 156.272 38.0937C156.272 38.4229 156.142 38.7386 155.909 38.9716L150.94 43.9403C150.705 44.1597 150.393 44.2792 150.072 44.2735C149.75 44.2678 149.443 44.1375 149.215 43.9099C148.988 43.6823 148.857 43.3752 148.851 43.0534C148.846 42.7316 148.965 42.4202 149.185 42.1847L152.033 39.3359H148.601C146.293 39.3346 144.019 38.7835 141.967 37.7282C139.915 36.673 138.144 35.144 136.8 33.2678L128.165 21.1772C127.053 19.6239 125.588 18.3577 123.889 17.4832C122.191 16.6088 120.309 16.1512 118.399 16.1484H113.625C113.296 16.1484 112.98 16.0176 112.747 15.7846C112.514 15.5517 112.383 15.2357 112.383 14.9062C112.383 14.5768 112.514 14.2608 112.747 14.0279C112.98 13.7949 113.296 13.6641 113.625 13.6641H118.399C120.707 13.6654 122.981 14.2165 125.033 15.2718C127.085 16.327 128.856 17.856 130.2 19.7321L138.835 31.8228C139.947 33.376 141.412 34.6423 143.111 35.5168C144.809 36.3912 146.691 36.8488 148.601 36.8516H152.033L149.185 34.0028C148.965 33.7673 148.846 33.4559 148.851 33.1341C148.857 32.8123 148.988 32.5052 149.215 32.2776C149.443 32.05 149.75 31.9197 150.072 31.914C150.393 31.9083 150.705 32.0278 150.94 32.2472L155.909 37.2159ZM136.85 21.8107C137.059 21.9622 137.312 22.0434 137.57 22.0426C137.768 22.0429 137.963 21.9959 138.139 21.9055C138.316 21.8151 138.467 21.684 138.583 21.523L138.829 21.1772C139.941 19.6231 141.408 18.3563 143.107 17.4818C144.806 16.6073 146.69 16.1502 148.601 16.1484H152.033L149.185 18.9972C149.063 19.1109 148.965 19.248 148.897 19.4004C148.829 19.5528 148.792 19.7173 148.79 19.8841C148.787 20.0509 148.817 20.2165 148.88 20.3712C148.942 20.5259 149.035 20.6664 149.153 20.7843C149.271 20.9023 149.412 20.9953 149.566 21.0578C149.721 21.1202 149.887 21.1509 150.053 21.148C150.22 21.145 150.385 21.1085 150.537 21.0406C150.689 20.9727 150.827 20.8749 150.94 20.7528L155.909 15.7841C156.142 15.5511 156.272 15.2354 156.272 14.9062C156.272 14.5771 156.142 14.2613 155.909 14.0284L150.94 9.05968C150.705 8.84026 150.393 8.72081 150.072 8.72649C149.75 8.73217 149.443 8.86253 149.215 9.09012C148.988 9.31771 148.857 9.62476 148.851 9.94657C148.846 10.2684 148.965 10.5798 149.185 10.8153L152.033 13.6641H148.601C146.293 13.6654 144.019 14.2165 141.967 15.2718C139.915 16.327 138.144 17.856 136.8 19.7321L136.56 20.082C136.37 20.3499 136.294 20.6822 136.348 21.0062C136.402 21.3302 136.583 21.6195 136.85 21.8107ZM130.15 31.1893C129.882 30.9976 129.549 30.9203 129.224 30.9743C128.899 31.0283 128.609 31.2091 128.417 31.477L128.171 31.8228C127.059 33.3769 125.592 34.6437 123.893 35.5182C122.194 36.3927 120.31 36.8498 118.399 36.8516H113.625C113.296 36.8516 112.98 36.9824 112.747 37.2154C112.514 37.4483 112.383 37.7643 112.383 38.0937C112.383 38.4232 112.514 38.7392 112.747 38.9721C112.98 39.2051 113.296 39.3359 113.625 39.3359H118.399C120.707 39.3346 122.981 38.7835 125.033 37.7282C127.085 36.673 128.856 35.144 130.2 33.2678L130.446 32.9221C130.541 32.7889 130.608 32.6384 130.644 32.4792C130.681 32.32 130.685 32.1552 130.658 31.9943C130.63 31.8334 130.571 31.6794 130.484 31.5413C130.397 31.4031 130.284 31.2835 130.15 31.1893Z" fill="#FF9090"/>
</svg>
